<svg xmlns="http://www.w3.org/2000/svg" width="3221" height="481" style="background:#fff;background-color:light-dark(#fff,var(--ge-dark-color, #121212))" viewBox="-0.5 -0.5 3221 481" xmlns:v="https://vecta.io/nano"><style><![CDATA[.B{fill:light-dark(#000000, #ffffff)}.C{font-family:Helvetica}.D{font-size:16px}.E{text-anchor:middle}.F{fill:none}.G{stroke:generic-light-dark(#000,#fff)}.H{stroke-miterlimit:10}.I{fill:light-dark(#fff,var(--ge-dark-color, #121212))}.J{pointer-events:none}.K{stroke-linecap:square}.L{pointer-events:stroke}.M{pointer-events:all}.N{fill:generic-light-dark(#000,#fff)}]]></style><path d="M0 0h3221v481H0z" class="I"/><g class="J"><path d="M160 200h180v120H160z" class="I"/><g class="F G H"><path d="M160 200h180v120H160V200" class="K"/><use href="#B"/></g></g><text x="190" y="225" class="B C D E">A</text><text x="280" y="225" class="B C D E">Kick-Off</text><text x="190" y="265" class="B C D E">01.01</text><text x="250" y="265" class="B C D E">1</text><text x="310" y="265" class="B C D E">02.01</text><text x="190" y="305" class="B C D E">01.01</text><text x="250" y="305" class="B C D E">0</text><text x="310" y="305" class="B C D E">02.01</text><g class="J"><path d="M480 200h180v120H480z" class="I"/><g class="F G H"><path d="M480 200h180v120H480V200" class="K"/><use href="#B" x="320"/></g></g><text x="510" y="225" class="B C D E">B</text><text x="600" y="225" class="B C D E">Employee Survey</text><text x="510" y="265" class="B C D E">02.01</text><text x="570" y="265" class="B C D E">8</text><text x="630" y="265" class="B C D E">10.01</text><text x="510" y="305" class="B C D E">02.01</text><text x="570" y="305" class="B C D E">0</text><text x="630" y="305" class="B C D E">10.01</text><g class="J"><path d="M480 360h180v120H480z" class="I"/><g class="F G H"><path d="M480 360h180v120H480V360" class="K"/><use href="#B" x="320" y="160"/></g></g><text x="510" y="385" class="B C D E">C</text><text x="600" y="385" class="B C D E">Observation of...</text><text x="510" y="425" class="B C D E">02.01</text><text x="570" y="425" class="B C D E">7</text><text x="630" y="425" class="B C D E">09.01</text><text x="510" y="465" class="B C D E">03.01</text><text x="570" y="465" class="B C D E">1</text><text x="630" y="465" class="B C D E">10.01</text><g class="J"><path d="M800 280h180v120H800z" class="I"/><g class="F G H"><path d="M800 280h180v120H800V280" class="K"/><use href="#B" x="640" y="80"/></g></g><text x="830" y="305" class="B C D E">D</text><text x="920" y="305" class="B C D E">Project Planning</text><text x="830" y="345" class="B C D E">10.01</text><text x="890" y="345" class="B C D E">5</text><text x="950" y="345" class="B C D E">15.01</text><text x="830" y="385" class="B C D E">10.01</text><text x="890" y="385" class="B C D E">0</text><text x="950" y="385" class="B C D E">15.01</text><g class="J"><use href="#C" class="I"/><g class="F G H"><use href="#D" class="K"/><use href="#B" x="960" y="80"/></g></g><text x="1150" y="305" class="B C D E">E</text><text x="1240" y="305" class="B C D E">Risk Analysis</text><text x="1150" y="345" class="B C D E">15.01</text><text x="1210" y="345" class="B C D E">3</text><text x="1270" y="345" class="B C D E">18.01</text><text x="1150" y="385" class="B C D E">15.01</text><text x="1210" y="385" class="B C D E">0</text><text x="1270" y="385" class="B C D E">18.01</text><g class="J"><use href="#C" x="320" y="-80" class="I"/><g class="F G H"><path d="M1440 200h180v120h-180V200" class="K"/><use href="#B" x="1280"/></g></g><text x="1470" y="225" class="B C D E">F</text><text x="1560" y="225" class="B C D E">Ordering new ha...</text><text x="1470" y="265" class="B C D E">18.01</text><text x="1530" y="265" class="B C D E">6</text><text x="1590" y="265" class="B C D E">24.01</text><text x="1470" y="305" class="B C D E">27.01</text><text x="1530" y="305" class="B C D E">8</text><text x="1590" y="305" class="B C D E">03.02</text><g class="J"><use href="#C" x="320" y="80" class="I"/><g class="F G H"><path d="M1440 360h180v120h-180V360" class="K"/><use href="#B" x="1280" y="160"/></g></g><text x="1470" y="385" class="B C D E">H</text><text x="1560" y="385" class="B C D E">Software Develo...</text><text x="1470" y="425" class="B C D E">18.01</text><text x="1530" y="425" class="B C D E">14</text><text x="1590" y="425" class="B C D E">01.02</text><text x="1470" y="465" class="B C D E">18.01</text><text x="1530" y="465" class="B C D E">0</text><text x="1590" y="465" class="B C D E">01.02</text><g class="J"><use href="#C" x="640" y="-80" class="I"/><g class="F G H"><path d="M1760 200h180v120h-180V200" class="K"/><use href="#B" x="1600"/></g></g><text x="1790" y="225" class="B C D E">G</text><text x="1880" y="225" class="B C D E">Setting up the...</text><text x="1790" y="265" class="B C D E">24.01</text><text x="1850" y="265" class="B C D E">3</text><text x="1910" y="265" class="B C D E">27.01</text><text x="1790" y="305" class="B C D E">03.02</text><text x="1850" y="305" class="B C D E">9</text><text x="1910" y="305" class="B C D E">06.02</text><g class="J"><use href="#C" x="640" y="80" class="I"/><g class="F G H"><path d="M1760 360h180v120h-180V360" class="K"/><use href="#B" x="1600" y="160"/></g></g><text x="1790" y="385" class="B C D E">I</text><text x="1880" y="385" class="B C D E">Testing the Sof...</text><text x="1790" y="425" class="B C D E">01.02</text><text x="1850" y="425" class="B C D E">5</text><text x="1910" y="425" class="B C D E">06.02</text><text x="1790" y="465" class="B C D E">01.02</text><text x="1850" y="465" class="B C D E">0</text><text x="1910" y="465" class="B C D E">06.02</text><g class="J"><path d="M2080 280h220v120h-220z" class="I"/><g class="F G H"><path d="M2080 280h220v120h-220V280" class="K"/><path d="M2080 320h220m-220 40h220m-147-80v120m74-80v80"/></g></g><text x="2117" y="305" class="B C D E">J</text><text x="2227" y="305" class="B C D E">Testing the softwa...</text><text x="2117" y="345" class="B C D E">06.02</text><text x="2190" y="345" class="B C D E">7</text><text x="2264" y="345" class="B C D E">13.02</text><text x="2117" y="385" class="B C D E">06.02</text><text x="2190" y="385" class="B C D E">0</text><text x="2264" y="385" class="B C D E">13.02</text><g class="J"><use href="#C" x="1280" class="I"/><g class="F G H"><use href="#D" x="1280" class="K"/><use href="#B" x="2240" y="80"/></g></g><text x="2430" y="305" class="B C D E">K</text><text x="2520" y="305" class="B C D E">Introducing the...</text><text x="2430" y="345" class="B C D E">13.02</text><text x="2490" y="345" class="B C D E">3</text><text x="2550" y="345" class="B C D E">16.02</text><text x="2430" y="385" class="B C D E">13.02</text><text x="2490" y="385" class="B C D E">0</text><text x="2550" y="385" class="B C D E">16.02</text><g class="J"><use href="#C" x="1600" class="I"/><g class="F G H"><use href="#D" x="1600" class="K"/><use href="#B" x="2560" y="80"/></g></g><text x="2750" y="305" class="B C D E">L</text><text x="2840" y="305" class="B C D E">Testing in oper...</text><text x="2750" y="345" class="B C D E">16.02</text><text x="2810" y="345" class="B C D E">4</text><text x="2870" y="345" class="B C D E">20.02</text><text x="2750" y="385" class="B C D E">16.02</text><text x="2810" y="385" class="B C D E">0</text><text x="2870" y="385" class="B C D E">20.02</text><g class="J"><use href="#C" x="1920" class="I"/><g class="F G H"><use href="#D" x="1920" class="K"/><use href="#B" x="2880" y="80"/></g></g><text x="3070" y="305" class="B C D E">M</text><text x="3160" y="305" class="B C D E">Project Complet...</text><text x="3070" y="345" class="B C D E">20.02</text><text x="3130" y="345" class="B C D E">1</text><text x="3190" y="345" class="B C D E">21.02</text><text x="3070" y="385" class="B C D E">20.02</text><text x="3130" y="385" class="B C D E">0</text><text x="3190" y="385" class="B C D E">21.02</text><g class="J"><path d="M0 0h180v120H0z" class="I"/><g class="F G H"><path d="M0 0h180v120H0V0" class="K"/><path d="M0 40h180M0 80h180M60 0v120m60-80v80"/></g></g><text x="30" y="25" class="B C D E">No.</text><text x="120" y="25" class="B C D E">Process</text><text x="30" y="65" class="B C D E">ESD</text><text x="90" y="65" class="B C D E">Duration</text><text x="150" y="65" class="B C D E">EFD</text><text x="30" y="105" class="B C D E">LSD</text><text x="90" y="105" class="B C D E">Buffer</text><text x="150" y="105" class="B C D E">LFD</text><g class="G H"><path d="M340 260h133.63" class="F L"/><use href="#E" class="M N"/></g><g class="G H"><path d="M340 260h70.07v160h63.56" class="F L"/><use href="#E" y="160" class="M N"/></g><g class="G H"><path d="M660 260h70.07v80h63.56" class="F L"/><use href="#E" x="320" y="80" class="M N"/></g><g class="G H"><path d="M660 420h70.07v-80h63.56" class="F L"/><use href="#E" x="320" y="80" class="M N"/></g><g class="G H"><path d="M980 340h133.63" class="F L"/><use href="#E" x="640" y="80" class="M N"/></g><g class="G H"><path d="M1300 340h70.07v-80h63.56" class="F L"/><use href="#E" x="960" class="M N"/></g><g class="G H"><path d="M1300 340h70.07v80h63.56" class="F L"/><use href="#E" x="960" y="160" class="M N"/></g><g class="G H"><path d="M1620 260h133.63" class="F L"/><use href="#E" x="1280" class="M N"/></g><g class="G H"><path d="M1620 420h133.63" class="F L"/><use href="#E" x="1280" y="160" class="M N"/></g><g class="G H"><path d="M1940 420h70.07v-80h63.56" class="F L"/><use href="#E" x="1600" y="80" class="M N"/></g><g class="G H"><path d="M1940 260h70.07v80h63.56" class="F L"/><use href="#E" x="1600" y="80" class="M N"/></g><g class="G H"><path d="M2300 340h93.63" class="F L"/><use href="#E" x="1920" y="80" class="M N"/></g><g class="G H"><path d="M2580 340h133.63" class="F L"/><use href="#E" x="2240" y="80" class="M N"/></g><g class="G H"><path d="M2900 340h133.63" class="F L"/><use href="#E" x="2560" y="80" class="M N"/></g><defs ><path id="B" d="M160 240h180m-180 40h180m-120-80v120m60-80v80"/><path id="C" d="M1120 280h180v120h-180z"/><path id="D" d="M1120 280h180v120h-180V280"/><path id="E" d="m478.88 260-7 3.5 1.75-3.5-1.75-3.5z"/></defs></svg>